<?xml version="1.0" encoding="utf-8"?><svg fill="none" viewBox="0 0 500 500" xmlns="http://www.w3.org/2000/svg"><defs /><g id="Rectangle_4"><g transform="translate(157.313,250)"><animateTransform repeatCount="indefinite" type="translate" attributeName="transform" dur="1s" begin="0s" calcMode="spline" values="157.313 250; 250 157.375; 342.688 250" keyTimes="0; 0.5; 1" keySplines="0.333 0 0.667 1; 0.333 0 0.667 1" fill="freeze" /><g transform="rotate(45) scale(1,1) translate(125,107)"><g id="Rectangle 1" transform="matrix(1,0,0,1,-125,-107)"><path stroke-linejoin="miter" stroke-linecap="butt" stroke-width="0" stroke-opacity="1" stroke="#fff8f1" fill="#5d3531" fill-opacity="1" d="M57,-57L57,57L-57,57L-57,-57L57,-57Z" /></g></g></g></g><g id="Rectangle_3"><g transform="translate(250,342.563)"><animateTransform repeatCount="indefinite" type="translate" attributeName="transform" dur="1s" begin="0s" calcMode="spline" values="250 342.563; 157.313 250; 250 157.375" keyTimes="0; 0.5; 1" keySplines="0.333 0 0.667 1; 0.333 0 0.667 1" fill="freeze" /><g transform="rotate(45) scale(1,1) translate(125,107)"><g id="Rectangle 1" transform="matrix(1,0,0,1,-125,-107)"><path stroke-linejoin="miter" stroke-linecap="butt" stroke-width="0" stroke-opacity="1" stroke="#fff8f1" fill="#271513" fill-opacity="1" d="M57,-57L57,57L-57,57L-57,-57L57,-57Z" /></g></g></g></g><g id="Rectangle_2"><g transform="translate(342.688,250)"><animateTransform repeatCount="indefinite" type="translate" attributeName="transform" dur="1s" begin="0s" calcMode="spline" values="342.688 250; 250 342.563; 157.313 250" keyTimes="0; 0.5; 1" keySplines="0.333 0 0.667 1; 0.333 0 0.667 1" fill="freeze" /><g transform="rotate(45) scale(1,1) translate(125,107)"><g id="Rectangle 1" transform="matrix(1,0,0,1,-125,-107)"><path stroke-linejoin="miter" stroke-linecap="butt" stroke-width="0" stroke-opacity="1" stroke="#fff8f1" fill="#5d3531" fill-opacity="1" d="M57,-57L57,57L-57,57L-57,-57L57,-57Z" /></g></g></g></g><g id="Rectangle_1"><g transform="translate(250,157.375)"><animateTransform repeatCount="indefinite" type="translate" attributeName="transform" dur="1s" begin="0s" calcMode="spline" values="250 157.375; 342.688 250; 250 342.563" keyTimes="0; 0.5; 1" keySplines="0.333 0 0.667 1; 0.333 0 0.667 1" fill="freeze" /><g transform="rotate(45) scale(1,1) translate(125,107)"><g id="Rectangle 1" transform="matrix(1,0,0,1,-125,-107)"><path stroke-linejoin="miter" stroke-linecap="butt" stroke-width="0" stroke-opacity="1" stroke="#fff8f1" fill="#271513" fill-opacity="1" d="M57,-57L57,57L-57,57L-57,-57L57,-57Z" /></g></g></g></g></svg>