<svg width="200" height="200" viewBox="0 0 200 200" fill="none" xmlns="http://www.w3.org/2000/svg">
  <rect width="200" height="200" fill="#faf6f0"/>
  <rect x="20" y="20" width="160" height="160" rx="8" fill="#fff3e0" stroke="#d4a574" stroke-width="1.5" stroke-dasharray="6 4"/>
  <path d="M100 70l15 30 32 5-23 22 6 30-30-15-30 15 6-30-23-22 32-5 15-30z" fill="#d4a574" opacity="0.3"/>
  <path d="M85 105l-5-20 18 5 2-22 2 22 18-5-5 20 15 12-20 3 5 18-15-8-15 8 5-18-20-3 15-12z" fill="#b8864e" opacity="0.15"/>
  <circle cx="100" cy="100" r="35" fill="none" stroke="#d4a574" stroke-width="1" opacity="0.4"/>
  <circle cx="100" cy="100" r="25" fill="none" stroke="#d4a574" stroke-width="0.8" opacity="0.3" stroke-dasharray="4 4"/>
  <text x="100" y="160" text-anchor="middle" fill="#b8864e" font-family="serif" font-size="11" opacity="0.5">TenunKita</text>
</svg>
